<svg width="50" height="50" viewBox="0 0 50 50" fill="none" xmlns="http://www.w3.org/2000/svg">
<path d="M25.019 6.16406L25.1841 6.21387C25.5452 6.35188 25.7405 6.6402 25.8306 6.8418C25.9233 7.04958 25.9549 7.26362 25.9702 7.40625C26.0019 7.70121 26.0005 8.10229 26.0005 8.52051V20.25H32.2866C32.9576 20.25 33.5754 20.2472 34.0552 20.3184C34.5208 20.3874 35.0823 20.5563 35.4634 21.0664L35.5376 21.1729L35.603 21.2852C35.9057 21.8452 35.8229 22.4255 35.6899 22.877C35.553 23.3422 35.2912 23.9019 35.0093 24.5107L26.8618 42.1104C26.6861 42.49 26.5184 42.854 26.3657 43.1084C26.2918 43.2315 26.1741 43.4129 26.0024 43.5625C25.8122 43.7283 25.4493 43.9391 24.981 43.8359C24.5127 43.7327 24.2734 43.3886 24.1704 43.1582C24.0776 42.9503 24.0461 42.7364 24.0308 42.5938C23.9991 42.2988 24.0005 41.8977 24.0005 41.4795V29.75H17.7134C17.0424 29.75 16.4246 29.7528 15.9448 29.6816C15.4483 29.6079 14.8428 29.4207 14.4634 28.8271C14.0839 28.2333 14.1683 27.6047 14.3101 27.123C14.447 26.6578 14.7088 26.0981 14.9907 25.4893L23.1392 7.88965C23.3148 7.51016 23.4816 7.1459 23.6343 6.8916C23.7082 6.76853 23.8269 6.58714 23.9985 6.4375C24.165 6.2925 24.4629 6.11332 24.8481 6.13965L25.019 6.16406Z" stroke="white" stroke-width="2"/>
</svg>
