<svg preserveAspectRatio="none" width="100%" height="100%" overflow="visible" style="display: block;" viewBox="0 0 130 39" fill="none" xmlns="http://www.w3.org/2000/svg">
<g id="&#208;&#155;&#208;&#190;&#208;&#179;&#208;&#190; arttech (&#209;&#136;&#208;&#186;&#208;&#190;&#208;&#187;&#208;&#176; &#208;&#180;&#208;&#184;&#208;&#183;&#208;&#176;&#208;&#185;&#208;&#189;&#208;&#176;) - &#208;&#177;&#208;&#181;&#208;&#187;&#209;&#139;&#208;&#185; 1" clip-path="url(#clip0_0_50)">
<path id="Vector" d="M4.57692 25.4116C3.7563 25.4298 2.94266 25.2531 2.19944 24.8951C1.53482 24.57 0.972842 24.0589 0.577972 23.4206C0.192434 22.7888 -0.00809156 22.0564 0.00032479 21.3108C-0.00911646 20.5884 0.187463 19.8788 0.565811 19.2698C0.974742 18.6386 1.55565 18.1453 2.23592 17.8515C3.09348 17.4845 4.01722 17.3091 4.94578 17.3371H10.475V18.8241H5.0289C3.94116 18.8241 3.13043 19.0497 2.59669 19.501C2.33718 19.7084 2.12864 19.9755 1.98784 20.2808C1.84703 20.5861 1.77789 20.921 1.78596 21.2587C1.77437 21.6066 1.84158 21.9525 1.98226 22.2691C2.12296 22.5857 2.33329 22.8644 2.59669 23.0832C3.13718 23.5441 3.92698 23.774 4.96606 23.7725C5.82022 23.7847 6.66315 23.5717 7.41448 23.154C8.11906 22.7636 8.70269 22.1776 9.09876 21.4629C9.51056 20.7131 9.72044 19.8641 9.70684 19.0032V16.4082C9.70684 15.3252 9.37847 14.4866 8.72179 13.8923C8.06508 13.2981 7.18341 13.0009 6.07675 13.0009C5.00659 13.0009 4.1641 13.253 3.54932 13.757C2.95124 14.2378 2.53311 14.9161 2.36564 15.6772H0.575944C0.680564 14.9048 0.970296 14.1713 1.41911 13.5424C1.90736 12.8651 2.55438 12.3256 3.3 11.9742C4.18892 11.5768 5.14867 11.374 6.11804 11.3787C7.08745 11.3833 8.04528 11.5954 8.93055 12.0013C9.70248 12.3897 10.344 13.0061 10.7729 13.7715C11.2121 14.5759 11.4346 15.4861 11.4175 16.4082V25.1409H9.75953V22.6812H9.62779C9.18645 23.4958 8.53026 24.1657 7.73471 24.614C6.77138 25.1676 5.68027 25.4432 4.57692 25.4116Z" fill="var(--fill-0, black)"/>
<path id="Vector_2" d="M15.2383 25.1421V11.6505H16.8962V13.9414H17.0259C17.38 13.1864 17.9444 12.5565 18.6474 12.1316C19.3806 11.7043 20.2125 11.4884 21.0553 11.5068H22.8976V13.2104H21.0553C19.8081 13.2104 18.817 13.6429 18.0819 14.5079C17.3468 15.3729 16.978 16.5087 16.9753 17.9152V25.1338L15.2383 25.1421Z" fill="var(--fill-0, black)"/>
<path id="Vector_3" d="M24.4982 13.273V11.6506H32.7352V13.273H24.4982ZM31.2354 25.1443C30.5167 25.1652 29.8036 25.0088 29.1559 24.6882C28.603 24.3996 28.1558 23.9349 27.881 23.3636C27.5693 22.6745 27.42 21.9196 27.4452 21.1601V8.1892H29.1822V21.1684C29.1822 21.9613 29.3619 22.5472 29.7214 22.9262C30.0822 23.3032 30.6294 23.4927 31.3672 23.4927H33.5966V25.1422L31.2354 25.1443Z" fill="var(--fill-0, black)"/>
<path id="Vector_4" d="M55.8132 5.38574C56.2267 5.3125 56.6498 5.31672 57.0617 5.39824C57.37 5.4482 57.6653 5.5623 57.9291 5.73354C58.1157 5.87308 58.2028 6.01681 58.1888 6.15008C58.1904 6.18527 58.1828 6.22028 58.1663 6.25119C58.1497 6.2821 58.1253 6.30767 58.0954 6.32503C58.0318 6.35716 57.9632 6.37759 57.8929 6.38542L57.6555 6.4125C57.6002 6.42554 57.5423 6.42119 57.4896 6.40003L57.4021 6.38126C52.034 8.03352 45.8919 10.5688 38.9765 13.9872C38.7702 18.8336 38.9126 23.689 39.4021 28.5139C39.8925 33.4415 40.6296 36.5024 41.6133 37.6964C42.0186 37.6644 42.701 35.8033 43.6603 32.1127C44.6196 28.4222 45.4371 24.788 46.1128 21.2099L46.739 21.4057C46.2161 24.8269 45.4549 28.5416 44.4549 32.55C43.455 36.5587 42.6692 38.6586 42.0977 38.8501C40.225 39.4527 38.8265 37.3457 37.9022 32.5292C36.9712 27.6878 36.7455 21.8014 37.2251 14.8703C34.6429 16.1546 32.7095 17.1799 31.4244 17.9464C31.4008 17.9676 31.3733 17.9837 31.3435 17.9937C31.3138 18.0038 31.2824 18.0075 31.2511 18.0048C31.2199 18.0021 31.1895 17.9929 31.1619 17.9779C31.1341 17.9628 31.1097 17.9422 31.0899 17.9172L30.9339 17.7944C30.8891 17.7711 30.8524 17.7342 30.8288 17.6887C30.8052 17.6432 30.7959 17.5914 30.8021 17.5403C30.8111 17.4269 30.8627 17.3215 30.946 17.2466C32.973 15.8179 35.1025 14.4704 37.3345 13.2041C37.8831 6.92276 38.91 2.57067 40.4154 0.147821C40.5139 0.0633139 40.636 0.0130108 40.7641 0.00411559C40.909 -0.00995971 41.0549 0.012191 41.1897 0.068678C41.3276 0.126993 41.3924 0.185307 41.38 0.243622C40.1897 3.02052 39.4275 7.00191 39.0938 12.1878C42.3374 10.3986 45.6926 8.83107 49.1368 7.49551C52.2867 6.30282 54.512 5.59957 55.8132 5.38574Z" fill="var(--fill-0, black)"/>
<path id="Vector_5" d="M54.4509 25.4123C53.2679 25.4246 52.1039 25.1072 51.0824 24.4938C50.0751 23.8911 49.2474 23.0168 48.6887 21.9654C48.1032 20.8684 47.8038 19.6344 47.8193 18.3832C47.8025 17.1359 48.1022 15.9056 48.6887 14.8135C49.2497 13.7677 50.077 12.8986 51.0824 12.2997C52.1033 11.6848 53.2676 11.3665 54.4509 11.3792C55.62 11.3631 56.7712 11.6764 57.7791 12.2852C58.7711 12.8908 59.582 13.7656 60.122 14.8135C60.7043 15.9459 60.9983 17.2111 60.9773 18.4915V18.8956H48.7414V17.4085H59.9761L59.2406 17.95C59.2002 17.0595 58.9615 16.1902 58.5432 15.4092C58.1497 14.6716 57.5671 14.0587 56.8589 13.6368C56.3005 13.3009 55.6816 13.0853 55.0396 13.003C54.3975 12.9207 53.7459 12.9735 53.1245 13.1582C52.5028 13.343 51.9243 13.6557 51.4244 14.0773C50.9241 14.499 50.5128 15.0209 50.215 15.6112C49.7989 16.475 49.5828 17.4257 49.5828 18.3895C49.5828 19.3532 49.7989 20.304 50.215 21.1678C50.6154 21.9631 51.2241 22.6276 51.9727 23.0861C52.7212 23.5447 53.5797 23.779 54.4509 23.7628C55.4127 23.7841 56.3596 23.5162 57.1752 22.9922C57.9593 22.4728 58.5626 21.7106 58.8979 20.8158H60.6877C60.4204 21.6694 59.9913 22.46 59.4249 23.1422C58.8372 23.8519 58.1052 24.4206 57.2804 24.8083C56.392 25.2208 55.4258 25.427 54.4509 25.4123Z" fill="var(--fill-0, black)"/>
<path id="Vector_6" d="M69.8977 25.4123C68.7017 25.4307 67.5237 25.1131 66.4904 24.4939C65.4911 23.8913 64.6682 23.0229 64.1091 21.98C63.5382 20.8745 63.2394 19.6421 63.2394 18.3906C63.2394 17.139 63.5382 15.9066 64.1091 14.8011C64.6634 13.7546 65.4873 12.885 66.4904 12.2873C67.5263 11.6758 68.7033 11.3628 69.8977 11.3813C70.8452 11.3753 71.7829 11.5807 72.6458 11.9832C73.4904 12.3741 74.2373 12.9565 74.831 13.6868C75.4346 14.4222 75.8628 15.2923 76.0815 16.2277H74.318C74.0129 15.2771 73.4182 14.4527 72.6217 13.8764C71.8252 13.2997 70.8719 12.9965 69.8977 13.01C69.0052 12.9944 68.1264 13.233 67.3581 13.6993C66.6166 14.1545 66.0146 14.8149 65.6211 15.605C65.2012 16.4693 64.9924 17.4258 65.013 18.3916C64.993 19.3607 65.2018 20.3203 65.6211 21.1886C66.0092 21.9831 66.6124 22.6454 67.3581 23.0964C68.1295 23.5533 69.0071 23.7866 69.8977 23.7711C70.8716 23.7854 71.8252 23.4829 72.6217 22.9068C73.4182 22.3297 74.0129 21.5046 74.318 20.5534H76.0815C75.8691 21.4956 75.4404 22.3718 74.831 23.1089C74.2322 23.8337 73.4865 24.4152 72.6458 24.8125C71.7838 25.2179 70.8455 25.4227 69.8977 25.4123Z" fill="var(--fill-0, black)"/>
<path id="Vector_7" d="M79.1846 25.1423V6.21701H80.9217V13.9229H81.0532C81.4954 13.1426 82.1365 12.5016 82.9079 12.0693C83.7534 11.6213 84.6898 11.3853 85.6411 11.3806C86.5921 11.3759 87.5307 11.6026 88.3803 12.0422C89.1488 12.4909 89.7607 13.1765 90.1294 14.0021C90.5563 14.9787 90.7638 16.0413 90.7375 17.1115V25.1423H89.0004V17.4093C89.0004 16.0042 88.6845 14.9184 88.0519 14.152C87.4197 13.3856 86.4986 13.0024 85.2895 13.0024C84.5076 12.9922 83.7378 13.198 83.0598 13.598C82.3958 13.9912 81.8526 14.5686 81.4932 15.2642C81.1044 16.0266 80.9099 16.8778 80.9277 17.7384V25.1465L79.1846 25.1423Z" fill="var(--fill-0, black)"/>
<path id="Vector_8" d="M97.5575 17.513V13.2102H98.2466V16.8632H99.8925V13.2102H100.582V16.8632H102.225V13.2102H102.915V17.513H97.5575Z" fill="var(--fill-0, black)"/>
<path id="Vector_9" d="M104.128 17.513V13.2102H104.818V17.513H104.128ZM107.067 17.513L105.498 15.3699L105.981 15.6177H104.562V14.9701H105.94L105.452 15.2679L107.004 13.2102H107.815L106.088 15.5011L106.072 15.0138L107.896 17.513H107.067Z" fill="var(--fill-0, black)"/>
<path id="Vector_10" d="M110.233 17.6069C109.851 17.6122 109.474 17.5137 109.141 17.3215C108.82 17.1322 108.555 16.8555 108.377 16.5218C108.194 16.1668 108.099 15.7715 108.099 15.3701C108.099 14.9687 108.194 14.5733 108.377 14.2183C108.554 13.8848 108.819 13.6087 109.141 13.4207C109.477 13.232 109.854 13.1332 110.237 13.1332C110.62 13.1332 110.997 13.232 111.334 13.4207C111.655 13.6076 111.919 13.8841 112.094 14.2183C112.274 14.5741 112.368 14.9692 112.368 15.3701C112.368 15.771 112.274 16.166 112.094 16.5218C111.919 16.8562 111.655 17.1333 111.334 17.3215C110.998 17.5145 110.618 17.6129 110.233 17.6069ZM110.233 16.9571C110.497 16.964 110.757 16.8963 110.985 16.7613C111.199 16.6297 111.371 16.4373 111.48 16.2073C111.593 15.9451 111.652 15.6613 111.652 15.3742C111.652 15.0872 111.593 14.8034 111.48 14.5412C111.37 14.3117 111.198 14.1193 110.985 13.9872C110.757 13.8522 110.497 13.7845 110.233 13.7914C109.973 13.7852 109.715 13.8529 109.49 13.9872C109.276 14.1193 109.105 14.3117 108.995 14.5412C108.881 14.8034 108.822 15.0872 108.822 15.3742C108.822 15.6613 108.881 15.9451 108.995 16.2073C109.104 16.4373 109.276 16.6297 109.49 16.7613C109.716 16.8927 109.973 16.9575 110.233 16.9488V16.9571Z" fill="var(--fill-0, black)"/>
<path id="Vector_11" d="M112.709 17.6067V16.9319H112.768C112.855 16.9387 112.943 16.9262 113.025 16.8953C113.108 16.8644 113.183 16.8159 113.246 16.7528C113.374 16.5845 113.446 16.3774 113.448 16.1634L113.639 13.2102H116.778V17.513H116.089V13.8579H113.84L114.287 13.533L114.121 16.1488C114.105 16.4349 114.044 16.7164 113.939 16.9819C113.858 17.1797 113.715 17.3445 113.534 17.4505C113.323 17.5584 113.088 17.6099 112.852 17.6004L112.709 17.6067Z" fill="var(--fill-0, black)"/>
<path id="Vector_12" d="M119.204 17.6062C118.939 17.6115 118.676 17.553 118.436 17.4354C118.223 17.3334 118.044 17.1704 117.92 16.966C117.795 16.7617 117.731 16.5247 117.735 16.2837C117.732 16.0539 117.794 15.8282 117.913 15.6339C118.043 15.4308 118.23 15.272 118.448 15.1778C118.722 15.06 119.017 15.0032 119.314 15.0112H121.04V15.6006H119.354C119.114 15.5818 118.874 15.6463 118.673 15.7838C118.601 15.8403 118.543 15.9135 118.504 15.9975C118.465 16.0816 118.446 16.1739 118.448 16.267C118.446 16.3626 118.465 16.4574 118.505 16.5438C118.545 16.6303 118.604 16.7059 118.677 16.7648C118.877 16.9078 119.119 16.9755 119.362 16.9564C119.611 16.9616 119.857 16.9014 120.078 16.7814C120.284 16.6699 120.454 16.4982 120.566 16.2878C120.685 16.0669 120.746 15.8178 120.742 15.5652V14.78C120.751 14.6426 120.73 14.5049 120.681 14.3767C120.632 14.2486 120.556 14.1331 120.459 14.0386C120.247 13.8568 119.977 13.7625 119.701 13.7741C119.446 13.7601 119.193 13.8333 118.983 13.9823C118.808 14.1136 118.686 14.3062 118.639 14.5238H117.917C117.944 14.2667 118.035 14.0211 118.183 13.8116C118.339 13.5923 118.549 13.4192 118.791 13.3096C119.073 13.1815 119.378 13.1183 119.686 13.1243C120.01 13.1153 120.33 13.1868 120.621 13.3325C120.87 13.4594 121.077 13.6595 121.215 13.9073C121.355 14.1728 121.425 14.4717 121.417 14.7737V17.5145H120.775V16.7981H120.732C120.586 17.0437 120.376 17.2416 120.124 17.3687C119.842 17.5269 119.526 17.6086 119.204 17.6062Z" fill="var(--fill-0, black)"/>
<path id="Vector_13" d="M97.5375 26.166V24.4998H98.1456L97.8293 24.6602C97.9243 24.546 98.0054 24.42 98.0705 24.2853C98.1332 24.1393 98.1786 23.9862 98.2063 23.8292C98.2498 23.582 98.2791 23.3323 98.2934 23.0815L98.4354 20.8447H101.459V24.4998H102.067V26.166H101.403V25.1413H98.1942V26.166H97.5375ZM98.5267 24.6893L98.3359 24.4936H100.768V21.4883H98.7736L99.0982 21.1717L98.9319 23.2898C98.9195 23.5664 98.8718 23.8402 98.7898 24.1041C98.7234 24.3079 98.635 24.5034 98.5267 24.6873V24.6893Z" fill="var(--fill-0, black)"/>
<path id="Vector_14" d="M102.878 25.1417V20.8389H103.567V24.2879H103.608L105.793 20.8389H106.683V25.1417H105.991V21.6928H105.951L103.766 25.1417H102.878Z" fill="var(--fill-0, black)"/>
<path id="Vector_15" d="M109.364 25.2265C109.034 25.233 108.706 25.1735 108.397 25.0516C108.142 24.9534 107.917 24.7848 107.749 24.5642C107.595 24.3506 107.509 24.093 107.504 23.827H108.227C108.236 23.9399 108.27 24.0492 108.327 24.1461C108.384 24.2431 108.462 24.3249 108.555 24.3851C108.802 24.529 109.083 24.5962 109.366 24.5788C109.632 24.594 109.896 24.5334 110.13 24.4039C110.217 24.353 110.288 24.2788 110.337 24.1893C110.386 24.0997 110.409 23.9982 110.406 23.8957C110.409 23.8004 110.387 23.706 110.344 23.6219C110.3 23.5378 110.236 23.4671 110.157 23.4167C109.942 23.2908 109.696 23.2315 109.449 23.2459H108.878V22.6211H109.449C109.673 22.6343 109.894 22.5776 110.086 22.4587C110.159 22.4099 110.218 22.3427 110.258 22.2636C110.298 22.1844 110.318 22.0959 110.315 22.0067C110.318 21.915 110.297 21.8241 110.253 21.7443C110.209 21.6645 110.144 21.5988 110.065 21.5548C109.85 21.4406 109.608 21.3874 109.366 21.4006C109.123 21.3871 108.88 21.4418 108.665 21.5589C108.582 21.6103 108.512 21.6803 108.459 21.7637C108.407 21.847 108.373 21.9415 108.361 22.0401H107.639C107.647 21.793 107.731 21.5549 107.881 21.3611C108.04 21.1571 108.25 21.001 108.489 20.9091C108.769 20.7995 109.068 20.7458 109.368 20.7508C109.668 20.7447 109.966 20.7927 110.25 20.8925C110.475 20.9688 110.675 21.108 110.827 21.2944C110.965 21.4714 111.037 21.6929 111.03 21.9192C111.035 22.1323 110.97 22.3409 110.848 22.5128C110.719 22.6854 110.542 22.8145 110.341 22.8835V22.9252C110.567 22.9812 110.769 23.1122 110.915 23.298C111.057 23.4802 111.133 23.7078 111.13 23.9415C111.135 24.1876 111.059 24.4284 110.915 24.6246C110.756 24.8291 110.546 24.9842 110.307 25.0724C110.005 25.1841 109.685 25.2364 109.364 25.2265Z" fill="var(--fill-0, black)"/>
<path id="Vector_16" d="M113.264 25.2269C112.997 25.2324 112.734 25.1739 112.494 25.0561C112.281 24.952 112.101 24.7881 111.975 24.5833C111.852 24.3793 111.789 24.1438 111.792 23.9043C111.789 23.6746 111.851 23.4488 111.971 23.2545C112.101 23.0509 112.289 22.8921 112.508 22.7984C112.781 22.6805 113.075 22.6237 113.371 22.6318H115.098V23.2296H113.418C113.177 23.2108 112.937 23.2753 112.737 23.4128C112.665 23.4697 112.608 23.5431 112.569 23.6271C112.53 23.711 112.511 23.8031 112.514 23.896C112.511 23.9915 112.53 24.0862 112.57 24.1726C112.609 24.2591 112.668 24.3348 112.741 24.3938C112.94 24.5376 113.183 24.606 113.426 24.5875C113.675 24.5919 113.921 24.5317 114.141 24.4125C114.348 24.2992 114.518 24.1271 114.632 23.9168C114.75 23.6955 114.81 23.4465 114.806 23.1942V22.3965C114.815 22.2591 114.794 22.1214 114.745 21.9933C114.696 21.8651 114.62 21.7496 114.522 21.6551C114.308 21.4745 114.035 21.3831 113.758 21.3989C113.503 21.3856 113.251 21.4587 113.041 21.6071C112.865 21.7389 112.742 21.9323 112.696 22.1508H111.981C112.008 21.8931 112.099 21.647 112.246 21.4364C112.402 21.2171 112.612 21.044 112.854 20.9345C113.136 20.8065 113.442 20.7433 113.75 20.7491C114.074 20.7406 114.395 20.8121 114.686 20.9574C114.934 21.0854 115.14 21.2853 115.278 21.5322C115.42 21.7973 115.49 22.0964 115.481 22.3986V25.1394H114.836V24.4229H114.796C114.652 24.6661 114.445 24.8636 114.198 24.9936C113.911 25.1527 113.589 25.233 113.264 25.2269Z" fill="var(--fill-0, black)"/>
<path id="Vector_17" d="M116.661 25.1416V20.8388H117.35V24.2877H117.39L119.575 20.8388H120.465V25.1416H119.776V21.6927H119.733L117.548 25.1416H116.661ZM118.562 20.3098C118.328 20.3171 118.097 20.2596 117.893 20.1432C117.712 20.0379 117.565 19.8799 117.471 19.6891C117.376 19.4994 117.327 19.2884 117.329 19.0747H117.927C117.919 19.2627 117.976 19.4476 118.09 19.5954C118.148 19.6624 118.221 19.7148 118.302 19.7487C118.383 19.7827 118.47 19.7972 118.558 19.7912C118.645 19.7975 118.732 19.7831 118.813 19.7491C118.894 19.7152 118.966 19.6626 119.024 19.5954C119.135 19.4466 119.191 19.2621 119.182 19.0747H119.78C119.782 19.2884 119.733 19.4994 119.638 19.6891C119.544 19.8776 119.398 20.0334 119.218 20.1369C119.019 20.2559 118.792 20.3171 118.562 20.3139V20.3098Z" fill="var(--fill-0, black)"/>
<path id="Vector_18" d="M121.677 25.1417V20.8389H122.366V25.1417H121.677ZM122.068 23.2903V22.6405H124.958V23.2903H122.068ZM124.66 25.1417V20.8389H125.35V25.1417H124.66Z" fill="var(--fill-0, black)"/>
<path id="Vector_19" d="M127.784 25.2269C127.519 25.2324 127.255 25.1739 127.016 25.0561C126.803 24.9544 126.623 24.7915 126.499 24.5871C126.374 24.3827 126.309 24.1456 126.313 23.9043C126.31 23.6747 126.372 23.4492 126.491 23.2545C126.622 23.0509 126.809 22.8921 127.028 22.7984C127.301 22.6805 127.595 22.6237 127.891 22.6318H129.618V23.2296H127.932C127.691 23.2108 127.452 23.2753 127.251 23.4128C127.179 23.4697 127.122 23.5431 127.083 23.6271C127.045 23.711 127.026 23.8031 127.028 23.896C127.025 23.9915 127.045 24.0862 127.084 24.1726C127.123 24.2591 127.182 24.3348 127.255 24.3938C127.455 24.5376 127.697 24.606 127.94 24.5875C128.189 24.5919 128.435 24.5317 128.655 24.4125C128.862 24.2992 129.032 24.1271 129.146 23.9168C129.264 23.6955 129.324 23.4465 129.32 23.1942V22.3965C129.329 22.2591 129.308 22.1214 129.259 21.9933C129.21 21.8651 129.134 21.7496 129.037 21.6551C128.822 21.4745 128.549 21.3831 128.272 21.3989C128.018 21.3856 127.766 21.4587 127.555 21.6071C127.379 21.7389 127.257 21.9323 127.211 22.1508H126.495C126.522 21.8927 126.614 21.6464 126.763 21.4364C126.918 21.2164 127.128 21.0431 127.371 20.9345C127.653 20.8065 127.958 20.7433 128.266 20.7491C128.59 20.7406 128.911 20.8121 129.203 20.9574C129.451 21.0851 129.658 21.285 129.797 21.5322C129.937 21.7976 130.007 22.0965 129.999 22.3986V25.1394H129.343V24.4229H129.302C129.158 24.6666 128.951 24.8642 128.704 24.9936C128.422 25.1503 128.105 25.2305 127.784 25.2269Z" fill="var(--fill-0, black)"/>
</g>
<defs>
<clipPath id="clip0_0_50">
<rect width="130" height="39" fill="white"/>
</clipPath>
</defs>
</svg>
