<svg preserveAspectRatio="none" width="100%" height="100%" overflow="visible" style="display: block;" viewBox="0 0 730.037 607.044" fill="none" xmlns="http://www.w3.org/2000/svg">
<g id="Group">
<path id="Vector 123" opacity="0" d="M373.059 62.0052C343.372 47.2534 302.004 79.9444 290.496 91.1653C259.581 109.124 302.624 148.209 287.666 183.134C272.707 218.059 213.386 153.236 161.023 146.555C108.661 139.874 99.7048 239.338 135.545 262.694C171.385 286.049 239.188 249.185 194.036 367.182C148.884 485.178 197.565 481.802 286.208 546.588C374.85 611.374 472.757 530.947 460.787 474.644C448.817 418.342 553.09 407.797 644.249 379.133C735.408 350.469 668.706 229.143 633.36 186.325C598.397 143.972 543.51 224.777 459.529 247.269C392.345 265.263 387.854 196.944 394.007 160.535C395.751 138.484 402.747 76.7569 373.059 62.0052Z" stroke="url(#paint0_linear_0_4)" stroke-opacity="0.5"/>
<path id="Vector 123_2" opacity="0.0714286" d="M366.477 63.8928C337.077 48.7727 295.367 80.7928 283.734 91.8208C252.654 109.297 295.032 148.864 279.627 183.478C264.222 218.092 205.97 152.638 153.845 145.25C101.721 137.862 91.3999 236.907 126.815 260.691C162.229 284.474 230.361 248.661 183.685 365.681C137.009 482.702 185.603 480.011 273.096 545.835C360.588 611.66 459.348 532.83 448.197 476.528C437.047 420.226 541.179 411.159 632.487 383.845C723.794 356.531 658.971 234.639 624.321 191.457C590.046 148.744 534.182 228.548 450.12 249.808C382.87 266.817 379.346 198.638 385.99 162.422C388.037 140.46 395.876 79.0129 366.477 63.8928Z" stroke="url(#paint1_linear_0_4)" stroke-opacity="0.5" stroke-width="1.07143"/>
<path id="Vector 123_3" opacity="0.142857" d="M359.833 65.7659C330.726 50.2826 288.684 81.6287 276.93 92.4624C245.691 109.456 287.399 149.493 271.554 183.791C255.708 218.088 198.531 152.019 146.654 143.93C94.7776 135.84 83.1019 234.448 118.086 258.653C153.071 282.857 221.514 248.096 173.333 364.121C125.152 480.146 173.648 478.137 259.98 544.981C346.311 611.824 445.898 534.599 435.565 478.31C425.232 422.02 529.202 414.426 620.638 388.46C712.075 362.495 649.134 240.065 615.182 196.53C581.599 153.468 524.775 232.26 440.648 252.29C373.347 268.315 370.785 200.289 377.917 164.273C380.265 142.405 388.94 81.2492 359.833 65.7659Z" stroke="url(#paint2_linear_0_4)" stroke-opacity="0.5" stroke-width="1.14286"/>
<path id="Vector 123_4" opacity="0.214286" d="M353.133 67.6314C324.323 51.7901 281.961 82.4591 270.087 93.0973C238.698 109.606 279.731 150.104 263.451 184.079C247.17 218.054 191.075 151.388 139.455 142.603C87.8347 133.817 74.8145 231.969 109.364 256.587C143.913 281.205 212.652 247.498 162.984 362.508C113.317 477.518 161.707 476.189 246.866 544.032C332.024 611.875 432.413 536.262 422.894 479.997C413.376 423.732 517.164 417.604 608.709 392.985C700.254 368.367 639.197 245.427 605.948 201.551C573.059 158.151 515.293 235.919 431.12 254.722C363.781 269.764 362.176 201.906 369.791 166.096C372.438 144.326 381.944 83.4726 353.133 67.6314Z" stroke="url(#paint3_linear_0_4)" stroke-opacity="0.5" stroke-width="1.21429"/>
<path id="Vector 123_5" opacity="0.285714" d="M346.375 69.4841C317.866 53.2902 275.193 83.2793 263.204 93.7208C231.672 109.745 272.025 150.691 255.316 184.338C238.606 217.986 183.597 150.741 132.244 141.264C80.8899 131.788 66.5356 229.466 100.645 254.49C134.755 279.515 203.773 246.862 152.638 360.839C101.503 474.816 149.777 474.163 233.752 542.985C317.726 611.808 418.891 537.815 410.185 481.586C401.478 425.357 505.063 420.688 596.697 397.414C688.332 374.141 629.161 250.721 596.617 206.514C564.425 162.787 505.734 239.521 421.532 257.098C354.171 271.161 353.518 203.483 361.611 167.886C364.555 146.218 374.884 85.6781 346.375 69.4841Z" stroke="url(#paint4_linear_0_4)" stroke-opacity="0.5" stroke-width="1.28571"/>
<path id="Vector 123_6" opacity="0.357143" d="M339.558 71.3171C311.355 54.7757 268.382 84.0822 256.281 94.326C224.613 109.864 264.283 151.248 247.15 184.562C230.017 217.877 176.1 150.069 125.022 139.908C73.9438 129.747 58.2661 226.933 91.9314 252.356C125.597 277.779 194.878 246.183 142.295 359.108C89.7118 472.033 137.86 472.052 220.64 541.834C303.42 611.617 405.336 539.251 397.438 483.07C389.541 426.888 492.902 423.672 584.606 401.741C676.309 379.809 619.026 255.938 587.19 211.412C555.699 167.369 496.1 243.057 411.888 259.413C344.518 272.497 344.811 205.013 353.379 169.636C356.617 148.073 367.762 87.8584 339.558 71.3171Z" stroke="url(#paint5_linear_0_4)" stroke-opacity="0.5" stroke-width="1.35714"/>
<path id="Vector 123_7" opacity="0.428571" d="M332.687 73.1399C304.793 56.2565 261.531 84.878 249.321 94.9228C217.525 109.974 256.506 151.784 238.956 184.761C221.406 217.737 168.587 149.385 117.793 138.545C66.9988 127.705 50.0087 224.38 83.2252 250.194C116.442 276.009 185.97 245.47 131.958 357.325C77.9463 469.18 125.96 469.868 207.534 540.59C289.109 611.313 391.751 540.581 384.659 484.458C377.568 428.336 480.685 426.565 572.439 405.974C664.192 385.382 608.798 261.087 577.672 216.253C546.883 171.905 486.394 246.538 402.189 261.675C334.825 273.784 336.059 206.507 345.097 171.355C348.627 149.902 360.581 90.0233 332.687 73.1399Z" stroke="url(#paint6_linear_0_4)" stroke-opacity="0.5" stroke-width="1.42857"/>
<path id="Vector 123_8" opacity="0.5" d="M325.756 74.942C298.176 57.722 254.637 85.656 242.321 95.5009C210.403 110.065 248.692 152.291 230.731 184.924C212.77 217.557 161.052 148.677 110.552 137.164C60.0513 125.651 41.76 221.799 74.5233 247.996C107.287 274.194 177.046 244.714 121.625 355.481C66.2038 466.248 114.073 467.601 194.433 539.243C274.792 610.886 378.133 541.793 371.845 485.742C365.556 429.69 468.41 429.358 560.193 410.103C651.977 390.848 598.472 266.159 568.059 221.027C537.975 176.385 476.614 249.952 392.434 263.874C325.089 275.011 327.259 207.954 336.761 173.033C340.581 151.694 353.337 92.162 325.756 74.942Z" stroke="url(#paint7_linear_0_4)" stroke-opacity="0.5" stroke-width="1.5"/>
<path id="Vector 123_9" opacity="0.571429" d="M318.772 76.7337C291.509 59.1826 247.702 86.427 235.283 96.071C203.252 110.147 240.845 152.777 222.479 185.062C204.113 217.347 153.501 147.956 103.303 135.776C53.1052 123.596 33.524 219.199 65.8299 245.773C98.1358 272.347 168.111 243.925 111.3 353.587C54.4894 463.249 102.206 465.263 181.34 537.805C260.475 610.348 364.489 542.9 359.001 486.931C353.512 430.961 456.081 432.059 547.876 414.138C639.67 396.217 588.055 271.162 558.356 225.744C528.98 180.819 466.765 253.311 382.627 266.02C315.316 276.188 318.415 209.364 328.378 174.681C332.484 153.46 346.034 94.2849 318.772 76.7337Z" stroke="url(#paint8_linear_0_4)" stroke-opacity="0.5" stroke-width="1.57143"/>
<path id="Vector 123_10" opacity="0.642857" d="M311.729 78.5045C284.788 60.6277 240.724 87.1806 228.206 96.6226C196.069 110.211 232.961 153.234 214.197 185.166C195.433 217.097 145.931 147.214 96.0436 134.373C46.1566 121.532 25.2973 216.573 57.1417 243.515C88.9861 270.457 159.161 243.094 100.981 351.634C42.8002 460.173 90.354 462.844 168.254 536.266C246.155 609.689 350.817 543.891 346.124 488.016C341.431 432.14 443.697 434.66 535.483 418.07C627.269 401.479 577.543 276.085 548.562 230.393C519.894 185.196 456.844 256.603 372.765 268.104C305.501 277.305 309.523 210.727 319.942 176.288C324.333 155.188 338.67 96.3813 311.729 78.5045Z" stroke="url(#paint9_linear_0_4)" stroke-opacity="0.5" stroke-width="1.64286"/>
<path id="Vector 123_11" opacity="0.714286" d="M304.633 80.2571C278.017 62.0602 233.707 87.9196 221.093 97.1589C188.856 110.259 225.045 153.664 205.888 185.238C186.732 216.811 138.344 146.452 88.7764 132.957C39.2092 119.462 17.0836 213.923 48.4625 241.226C79.8415 268.529 150.2 242.225 90.6702 349.625C31.1407 457.025 78.5231 460.349 155.18 534.631C231.837 608.912 337.122 544.771 333.221 489C329.32 433.229 431.262 437.163 523.021 421.899C614.78 406.635 566.942 280.932 538.679 234.976C510.723 189.518 446.855 259.831 362.852 270.128C295.651 278.366 300.59 212.046 311.459 177.857C316.132 156.882 331.249 98.454 304.633 80.2571Z" stroke="url(#paint10_linear_0_4)" stroke-opacity="0.5" stroke-width="1.71429"/>
<path id="Vector 123_12" opacity="0.785714" d="M297.48 81.99C271.193 63.4785 226.648 88.6429 213.941 97.6785C181.613 110.291 217.094 154.066 197.551 185.277C178.009 216.487 130.738 145.671 81.4995 131.528C32.2606 117.384 8.88072 211.249 39.7903 238.905C70.7 266.561 141.226 241.316 80.3677 347.56C19.5093 453.804 66.7114 457.777 142.116 532.898C217.521 608.019 323.402 545.537 320.29 489.882C317.178 434.227 418.776 439.567 510.489 425.625C602.201 411.684 556.25 285.699 528.708 239.491C501.465 193.783 436.797 262.993 352.889 272.091C285.762 279.369 291.611 213.321 302.927 179.387C307.878 158.541 323.767 100.501 297.48 81.99Z" stroke="url(#paint11_linear_0_4)" stroke-opacity="0.5" stroke-width="1.78571"/>
<path id="Vector 123_13" opacity="0.857143" d="M290.273 83.7059C264.318 64.8855 219.549 89.3532 206.751 98.1845C174.339 110.308 209.109 154.444 189.187 185.287C169.265 216.13 123.116 144.873 74.2135 130.088C25.3113 115.303 0.68954 208.556 31.1261 236.557C61.5627 264.558 132.241 240.37 70.0742 345.443C7.90764 450.515 54.9206 455.133 129.065 531.072C203.209 607.011 309.661 546.194 307.333 490.666C305.005 435.138 406.242 441.875 497.888 429.251C589.534 416.628 545.47 290.39 518.65 243.94C492.121 197.993 426.672 266.092 342.874 273.995C275.837 280.317 282.59 214.553 294.346 180.88C299.574 160.167 316.227 102.526 290.273 83.7059Z" stroke="url(#paint12_linear_0_4)" stroke-opacity="0.5" stroke-width="1.85714"/>
<path id="Vector 123_14" opacity="0.928571" d="M283.012 85.3992C257.394 66.2756 212.411 90.0453 199.526 98.6714C167.038 110.307 201.094 154.79 180.799 185.262C160.504 215.733 115.478 144.053 66.9212 128.633C18.3639 113.213 -7.48721 205.837 22.4727 234.175C52.4327 262.514 123.247 239.384 59.793 343.269C-3.66089 447.154 43.1542 452.411 116.029 529.148C188.905 605.886 295.901 546.736 294.354 491.346C292.806 435.957 393.661 444.081 485.223 432.772C576.785 421.462 534.605 294.999 508.508 248.318C482.694 202.143 416.483 269.123 332.813 275.835C265.878 281.206 273.528 215.737 285.721 182.332C291.222 161.755 308.631 104.523 283.012 85.3992Z" stroke="url(#paint13_linear_0_4)" stroke-opacity="0.5" stroke-width="1.92857"/>
<path id="Vector 123_15" d="M275.696 87.0698C250.417 67.6486 205.231 90.7192 192.263 99.1395C159.705 110.287 193.045 155.107 172.383 185.202C151.722 215.297 107.823 143.211 59.6187 127.164C11.4145 111.116 -15.6531 203.094 13.8267 231.762C43.3066 260.43 114.241 238.357 49.5209 341.039C-15.1992 443.721 31.4092 449.613 103.008 527.128C174.607 604.644 282.122 547.165 281.351 491.924C280.579 436.684 381.034 446.186 472.492 436.186C563.951 426.185 523.653 299.525 498.28 252.625C473.183 206.233 406.227 272.084 322.703 277.612C255.883 282.035 264.424 216.874 277.047 183.741C282.819 163.305 300.975 106.491 275.696 87.0698Z" stroke="url(#paint14_linear_0_4)" stroke-opacity="0.5" stroke-width="2"/>
</g>
<defs>
<linearGradient id="paint0_linear_0_4" x1="358.215" y1="56.7149" x2="463.116" y2="550.338" gradientUnits="userSpaceOnUse">
<stop stop-color="#581703"/>
<stop offset="1" stop-color="#F09736"/>
</linearGradient>
<linearGradient id="paint1_linear_0_4" x1="351.747" y1="58.4122" x2="449.466" y2="552.029" gradientUnits="userSpaceOnUse">
<stop stop-color="#581703"/>
<stop offset="1" stop-color="#F09736"/>
</linearGradient>
<linearGradient id="paint2_linear_0_4" x1="345.221" y1="60.0972" x2="435.778" y2="553.604" gradientUnits="userSpaceOnUse">
<stop stop-color="#581703"/>
<stop offset="1" stop-color="#F09736"/>
</linearGradient>
<linearGradient id="paint3_linear_0_4" x1="338.641" y1="61.7767" x2="422.058" y2="555.07" gradientUnits="userSpaceOnUse">
<stop stop-color="#581703"/>
<stop offset="1" stop-color="#F09736"/>
</linearGradient>
<linearGradient id="paint4_linear_0_4" x1="332.005" y1="63.4457" x2="408.306" y2="556.422" gradientUnits="userSpaceOnUse">
<stop stop-color="#581703"/>
<stop offset="1" stop-color="#F09736"/>
</linearGradient>
<linearGradient id="paint5_linear_0_4" x1="325.313" y1="65.0971" x2="394.523" y2="557.655" gradientUnits="userSpaceOnUse">
<stop stop-color="#581703"/>
<stop offset="1" stop-color="#F09736"/>
</linearGradient>
<linearGradient id="paint6_linear_0_4" x1="318.568" y1="66.7408" x2="380.713" y2="558.778" gradientUnits="userSpaceOnUse">
<stop stop-color="#581703"/>
<stop offset="1" stop-color="#F09736"/>
</linearGradient>
<linearGradient id="paint7_linear_0_4" x1="311.766" y1="68.366" x2="366.876" y2="559.782" gradientUnits="userSpaceOnUse">
<stop stop-color="#581703"/>
<stop offset="1" stop-color="#F09736"/>
</linearGradient>
<linearGradient id="paint8_linear_0_4" x1="304.913" y1="69.9832" x2="353.016" y2="560.678" gradientUnits="userSpaceOnUse">
<stop stop-color="#581703"/>
<stop offset="1" stop-color="#F09736"/>
</linearGradient>
<linearGradient id="paint9_linear_0_4" x1="298.003" y1="71.5819" x2="339.131" y2="561.456" gradientUnits="userSpaceOnUse">
<stop stop-color="#581703"/>
<stop offset="1" stop-color="#F09736"/>
</linearGradient>
<linearGradient id="paint10_linear_0_4" x1="291.042" y1="73.1647" x2="325.226" y2="562.119" gradientUnits="userSpaceOnUse">
<stop stop-color="#581703"/>
<stop offset="1" stop-color="#F09736"/>
</linearGradient>
<linearGradient id="paint11_linear_0_4" x1="284.027" y1="74.7303" x2="311.301" y2="562.666" gradientUnits="userSpaceOnUse">
<stop stop-color="#581703"/>
<stop offset="1" stop-color="#F09736"/>
</linearGradient>
<linearGradient id="paint12_linear_0_4" x1="276.958" y1="76.2813" x2="297.358" y2="563.102" gradientUnits="userSpaceOnUse">
<stop stop-color="#581703"/>
<stop offset="1" stop-color="#F09736"/>
</linearGradient>
<linearGradient id="paint13_linear_0_4" x1="269.839" y1="77.8122" x2="283.401" y2="563.421" gradientUnits="userSpaceOnUse">
<stop stop-color="#581703"/>
<stop offset="1" stop-color="#F09736"/>
</linearGradient>
<linearGradient id="paint14_linear_0_4" x1="262.667" y1="79.3229" x2="269.428" y2="563.625" gradientUnits="userSpaceOnUse">
<stop stop-color="#581703"/>
<stop offset="1" stop-color="#F09736"/>
</linearGradient>
</defs>
</svg>
