<svg preserveAspectRatio="none" width="100%" height="100%" overflow="visible" style="display: block;" viewBox="0 0 730.037 607.044" fill="none" xmlns="http://www.w3.org/2000/svg">
<g id="Group">
<path id="Vector 123" opacity="0" d="M373.059 62.0051C343.372 47.2534 302.004 79.9444 290.496 91.1653C259.581 109.124 302.624 148.209 287.666 183.134C272.707 218.059 213.386 153.236 161.023 146.555C108.661 139.874 99.7048 239.338 135.545 262.694C171.385 286.049 239.188 249.185 194.036 367.182C148.884 485.178 197.565 481.802 286.208 546.588C374.85 611.374 472.757 530.947 460.787 474.644C448.817 418.342 553.09 407.797 644.249 379.133C735.408 350.469 668.706 229.143 633.36 186.325C598.397 143.972 543.51 224.777 459.529 247.269C392.345 265.263 387.854 196.944 394.007 160.535C395.751 138.484 402.747 76.7569 373.059 62.0051Z" stroke="url(#paint0_linear_0_20)"/>
<path id="Vector 123_2" opacity="0.0714286" d="M366.475 63.8914C337.075 48.7713 295.365 80.7914 283.732 91.8194C252.652 109.296 295.03 148.863 279.625 183.477C264.22 218.091 205.968 152.636 153.843 145.248C101.719 137.86 91.3979 236.906 126.813 260.689C162.227 284.473 230.359 248.66 183.683 365.68C137.007 482.7 185.601 480.01 273.094 545.834C360.586 611.658 459.346 532.828 448.196 476.526C437.045 420.224 541.177 411.158 632.485 383.844C723.792 356.53 658.969 234.637 624.319 191.456C590.044 148.742 534.181 228.546 450.118 249.807C382.868 266.815 379.344 198.636 385.988 162.421C388.035 140.459 395.874 79.0115 366.475 63.8914Z" stroke="url(#paint1_linear_0_20)" stroke-width="1.07143"/>
<path id="Vector 123_3" opacity="0.142857" d="M359.833 65.7652C330.726 50.2819 288.684 81.628 276.93 92.4617C245.691 109.455 287.399 149.493 271.554 183.79C255.708 218.087 198.531 152.019 146.654 143.929C94.7776 135.84 83.1019 234.448 118.086 258.652C153.071 282.857 221.514 248.095 173.333 364.12C125.152 480.145 173.648 478.137 259.98 544.98C346.311 611.823 445.898 534.598 435.565 478.309C425.232 422.019 529.202 414.425 620.638 388.46C712.075 362.494 649.134 240.064 615.182 196.53C581.599 153.467 524.775 232.259 440.648 252.29C373.347 268.314 370.785 200.289 377.917 164.273C380.265 142.405 388.94 81.2485 359.833 65.7652Z" stroke="url(#paint2_linear_0_20)" stroke-width="1.14286"/>
<path id="Vector 123_4" opacity="0.214286" d="M353.132 67.6307C324.322 51.7894 281.959 82.4584 270.086 93.0966C238.697 109.606 279.73 150.103 263.449 184.078C247.168 218.053 191.073 151.388 139.453 142.602C87.8332 133.816 74.813 231.969 109.362 256.587C143.912 281.205 212.65 247.497 162.983 362.507C113.316 477.518 161.706 476.189 246.864 544.031C332.022 611.874 432.411 536.262 422.893 479.997C413.374 423.731 517.163 417.603 608.708 392.985C700.252 368.366 639.196 245.426 605.947 201.551C573.058 158.15 515.291 235.918 431.118 254.721C363.78 269.764 362.175 201.905 369.79 166.096C372.437 144.325 381.942 83.4719 353.132 67.6307Z" stroke="url(#paint3_linear_0_20)" stroke-width="1.21429"/>
<path id="Vector 123_5" opacity="0.285714" d="M346.374 69.4827C317.865 53.2888 275.192 83.2779 263.204 93.7194C231.671 109.743 272.025 150.689 255.315 184.337C238.605 217.984 183.597 150.739 132.243 141.263C80.8894 131.787 66.5351 229.465 100.645 254.489C134.754 279.513 203.772 246.861 152.638 360.838C101.503 474.815 149.777 474.161 233.751 542.984C317.726 611.806 418.891 537.814 410.184 481.585C401.478 425.355 505.063 420.687 596.697 397.413C688.331 374.139 629.16 250.719 596.616 206.513C564.425 162.786 505.733 239.519 421.532 257.097C354.171 271.159 353.517 203.481 361.611 167.885C364.555 146.216 374.883 85.6767 346.374 69.4827Z" stroke="url(#paint4_linear_0_20)" stroke-width="1.28571"/>
<path id="Vector 123_6" opacity="0.357143" d="M339.558 71.3157C311.355 54.7743 268.382 84.0809 256.281 94.3246C224.613 109.862 264.283 151.246 247.15 184.561C230.017 217.875 176.1 150.068 125.022 139.907C73.9438 129.746 58.2661 226.932 91.9314 252.354C125.597 277.777 194.878 246.181 142.295 359.106C89.7118 472.032 137.86 472.051 220.64 541.833C303.42 611.615 405.336 539.25 397.438 483.068C389.541 426.887 492.902 423.671 584.606 401.739C676.309 379.808 619.026 255.936 587.19 211.411C555.699 167.367 496.1 243.056 411.888 259.411C344.518 272.496 344.811 205.012 353.379 169.634C356.617 148.072 367.762 87.857 339.558 71.3157Z" stroke="url(#paint5_linear_0_20)" stroke-width="1.35714"/>
<path id="Vector 123_7" opacity="0.428571" d="M332.686 73.1385C304.792 56.2551 261.531 84.8766 249.321 94.9214C217.524 109.973 256.506 151.783 238.956 184.759C221.406 217.736 168.586 149.383 117.792 138.543C66.9983 127.703 50.0082 224.379 83.2247 250.193C116.441 276.007 185.97 245.469 131.958 357.324C77.9458 469.179 125.959 469.866 207.534 540.589C289.109 611.311 391.75 540.579 384.659 484.457C377.567 428.335 480.685 426.564 572.438 405.972C664.192 385.381 608.797 261.086 577.671 216.252C546.882 171.904 486.394 246.536 402.189 261.673C334.824 273.783 336.059 206.506 345.096 171.353C348.626 149.901 360.58 90.0219 332.686 73.1385Z" stroke="url(#paint6_linear_0_20)" stroke-width="1.42857"/>
<path id="Vector 123_8" opacity="0.5" d="M325.756 74.9413C298.176 57.7213 254.637 85.6553 242.321 95.5002C210.403 110.064 248.692 152.29 230.731 184.923C212.77 217.556 161.052 148.676 110.552 137.163C60.0513 125.65 41.76 221.798 74.5233 247.996C107.287 274.193 177.046 244.713 121.625 355.48C66.2038 466.247 114.073 467.6 194.433 539.243C274.792 610.885 378.133 541.792 371.845 485.741C365.556 429.689 468.41 429.357 560.193 410.102C651.977 390.848 598.472 266.158 568.059 221.027C537.975 176.385 476.614 249.952 392.434 263.873C325.089 275.01 327.259 207.953 336.761 173.032C340.581 151.693 353.337 92.1613 325.756 74.9413Z" stroke="url(#paint7_linear_0_20)" stroke-width="1.5"/>
<path id="Vector 123_9" opacity="0.571429" d="M318.77 76.733C291.507 59.1819 247.7 86.4263 235.281 96.0703C203.25 110.147 240.843 152.777 222.477 185.061C204.112 217.346 153.499 147.956 103.301 135.776C53.1032 123.596 33.522 219.199 65.8279 245.772C98.1339 272.346 168.109 243.924 111.298 353.586C54.4875 463.248 102.204 465.262 181.338 537.804C260.473 610.347 364.488 542.899 358.999 486.93C353.51 430.961 456.079 432.058 547.874 414.138C639.669 396.217 588.053 271.161 558.354 225.744C528.978 180.818 466.763 253.31 382.625 266.019C315.314 276.187 318.413 209.363 328.376 174.68C332.482 153.459 346.033 94.2842 318.77 76.733Z" stroke="url(#paint8_linear_0_20)" stroke-width="1.57143"/>
<path id="Vector 123_10" opacity="0.642857" d="M311.729 78.5031C284.788 60.6263 240.724 87.1792 228.206 96.6212C196.069 110.21 232.961 153.233 214.197 185.164C195.433 217.096 145.931 147.213 96.0436 134.372C46.1566 121.531 25.2973 216.572 57.1417 243.514C88.9861 270.456 159.161 243.093 100.981 351.632C42.8002 460.172 90.354 462.843 168.254 536.265C246.155 609.687 350.817 543.89 346.124 488.014C341.431 432.139 443.697 434.659 535.483 418.068C627.269 401.478 577.543 276.084 548.562 230.392C519.894 185.194 456.844 256.601 372.765 268.103C305.501 277.304 309.523 210.726 319.942 176.286C324.333 155.187 338.67 96.3799 311.729 78.5031Z" stroke="url(#paint9_linear_0_20)" stroke-width="1.64286"/>
<path id="Vector 123_11" opacity="0.714286" d="M304.631 80.2557C278.016 62.0588 233.706 87.9182 221.091 97.1575C188.855 110.258 225.043 153.663 205.887 185.236C186.73 216.81 138.342 146.451 88.775 132.956C39.2078 119.461 17.0821 213.922 48.461 241.225C79.84 268.527 150.198 242.223 90.6688 349.623C31.1392 457.023 78.5216 460.348 155.179 534.629C231.836 608.911 337.12 544.769 333.219 488.998C329.319 433.227 431.261 437.162 523.02 421.898C614.778 406.634 566.941 280.93 538.678 234.974C510.721 189.516 446.853 259.829 362.851 270.127C295.649 278.364 300.588 212.045 311.458 177.856C316.13 156.881 331.247 98.4526 304.631 80.2557Z" stroke="url(#paint10_linear_0_20)" stroke-width="1.71429"/>
<path id="Vector 123_12" opacity="0.785714" d="M297.48 81.9893C271.193 63.4778 226.648 88.6422 213.94 97.6778C181.613 110.29 217.093 154.066 197.551 185.276C178.008 216.487 130.738 145.67 81.499 131.527C32.2601 117.384 8.88023 211.249 39.7899 238.905C70.6995 266.56 141.226 241.315 80.3672 347.559C19.5088 453.804 66.711 457.776 142.116 532.897C217.52 608.018 323.402 545.536 320.289 489.881C317.177 434.226 418.776 439.566 510.488 425.625C602.2 411.683 556.25 285.699 528.708 239.49C501.464 193.782 436.796 262.992 352.888 272.09C285.761 279.368 291.611 213.32 302.926 179.386C307.878 158.541 323.767 100.501 297.48 81.9893Z" stroke="url(#paint11_linear_0_20)" stroke-width="1.78571"/>
<path id="Vector 123_13" opacity="0.857143" d="M290.272 83.7052C264.318 64.8849 219.548 89.3526 206.75 98.1838C174.339 110.308 209.109 154.443 189.187 185.286C169.265 216.129 123.115 144.872 74.2131 130.087C25.3108 115.302 0.689052 208.555 31.1256 236.556C61.5622 264.557 132.24 240.37 70.0737 345.442C7.90715 450.515 54.9201 455.132 129.064 531.071C203.208 607.011 309.66 546.193 307.332 490.665C305.004 435.138 406.241 441.874 497.887 429.251C589.534 416.628 545.47 290.39 518.65 243.939C492.12 197.993 426.671 266.091 342.874 273.994C275.836 280.317 282.589 214.552 294.346 180.879C299.574 160.167 316.226 102.526 290.272 83.7052Z" stroke="url(#paint12_linear_0_20)" stroke-width="1.85714"/>
<path id="Vector 123_14" opacity="0.928571" d="M283.01 85.3985C257.392 66.2749 212.409 90.0446 199.524 98.6707C167.036 110.306 201.092 154.79 180.797 185.261C160.502 215.732 115.477 144.052 66.9192 128.632C18.3619 113.213 -7.48916 205.836 22.4708 234.175C52.4307 262.513 123.245 239.383 59.791 343.268C-3.66285 447.153 43.1522 452.41 116.028 529.148C188.903 605.885 295.899 546.735 294.352 491.346C292.804 435.956 393.659 444.08 485.221 432.771C576.783 421.461 534.603 294.998 508.506 248.317C482.693 202.143 416.481 269.122 332.811 275.835C265.876 281.205 273.526 215.736 285.719 182.331C291.22 161.754 308.629 104.522 283.01 85.3985Z" stroke="url(#paint13_linear_0_20)" stroke-width="1.92857"/>
<path id="Vector 123_15" d="M275.696 87.0698C250.417 67.6486 205.231 90.7192 192.263 99.1395C159.705 110.287 193.045 155.107 172.383 185.202C151.722 215.297 107.823 143.211 59.6187 127.164C11.4145 111.116 -15.6531 203.094 13.8267 231.762C43.3066 260.43 114.241 238.357 49.5209 341.039C-15.1992 443.721 31.4092 449.613 103.008 527.128C174.607 604.644 282.122 547.165 281.351 491.924C280.579 436.684 381.034 446.186 472.492 436.186C563.951 426.185 523.653 299.525 498.28 252.625C473.183 206.233 406.227 272.084 322.703 277.612C255.883 282.035 264.424 216.874 277.047 183.741C282.819 163.305 300.975 106.491 275.696 87.0698Z" stroke="url(#paint14_linear_0_20)" stroke-width="2"/>
</g>
<defs>
<linearGradient id="paint0_linear_0_20" x1="358.215" y1="56.7149" x2="463.116" y2="550.338" gradientUnits="userSpaceOnUse">
<stop stop-color="#E64210"/>
<stop offset="1" stop-color="#F09736"/>
</linearGradient>
<linearGradient id="paint1_linear_0_20" x1="351.745" y1="58.4108" x2="449.464" y2="552.028" gradientUnits="userSpaceOnUse">
<stop stop-color="#E64210"/>
<stop offset="1" stop-color="#F09736"/>
</linearGradient>
<linearGradient id="paint2_linear_0_20" x1="345.221" y1="60.0965" x2="435.778" y2="553.603" gradientUnits="userSpaceOnUse">
<stop stop-color="#E64210"/>
<stop offset="1" stop-color="#F09736"/>
</linearGradient>
<linearGradient id="paint3_linear_0_20" x1="338.64" y1="61.776" x2="422.057" y2="555.069" gradientUnits="userSpaceOnUse">
<stop stop-color="#E64210"/>
<stop offset="1" stop-color="#F09736"/>
</linearGradient>
<linearGradient id="paint4_linear_0_20" x1="332.004" y1="63.4443" x2="408.305" y2="556.421" gradientUnits="userSpaceOnUse">
<stop stop-color="#E64210"/>
<stop offset="1" stop-color="#F09736"/>
</linearGradient>
<linearGradient id="paint5_linear_0_20" x1="325.313" y1="65.0958" x2="394.523" y2="557.653" gradientUnits="userSpaceOnUse">
<stop stop-color="#E64210"/>
<stop offset="1" stop-color="#F09736"/>
</linearGradient>
<linearGradient id="paint6_linear_0_20" x1="318.567" y1="66.7394" x2="380.713" y2="558.777" gradientUnits="userSpaceOnUse">
<stop stop-color="#E64210"/>
<stop offset="1" stop-color="#F09736"/>
</linearGradient>
<linearGradient id="paint7_linear_0_20" x1="311.766" y1="68.3653" x2="366.876" y2="559.781" gradientUnits="userSpaceOnUse">
<stop stop-color="#E64210"/>
<stop offset="1" stop-color="#F09736"/>
</linearGradient>
<linearGradient id="paint8_linear_0_20" x1="304.911" y1="69.9825" x2="353.014" y2="560.677" gradientUnits="userSpaceOnUse">
<stop stop-color="#E64210"/>
<stop offset="1" stop-color="#F09736"/>
</linearGradient>
<linearGradient id="paint9_linear_0_20" x1="298.003" y1="71.5805" x2="339.131" y2="561.454" gradientUnits="userSpaceOnUse">
<stop stop-color="#E64210"/>
<stop offset="1" stop-color="#F09736"/>
</linearGradient>
<linearGradient id="paint10_linear_0_20" x1="291.041" y1="73.1633" x2="325.224" y2="562.117" gradientUnits="userSpaceOnUse">
<stop stop-color="#E64210"/>
<stop offset="1" stop-color="#F09736"/>
</linearGradient>
<linearGradient id="paint11_linear_0_20" x1="284.026" y1="74.7296" x2="311.3" y2="562.666" gradientUnits="userSpaceOnUse">
<stop stop-color="#E64210"/>
<stop offset="1" stop-color="#F09736"/>
</linearGradient>
<linearGradient id="paint12_linear_0_20" x1="276.958" y1="76.2807" x2="297.357" y2="563.101" gradientUnits="userSpaceOnUse">
<stop stop-color="#E64210"/>
<stop offset="1" stop-color="#F09736"/>
</linearGradient>
<linearGradient id="paint13_linear_0_20" x1="269.837" y1="77.8115" x2="283.399" y2="563.421" gradientUnits="userSpaceOnUse">
<stop stop-color="#E64210"/>
<stop offset="1" stop-color="#F09736"/>
</linearGradient>
<linearGradient id="paint14_linear_0_20" x1="262.667" y1="79.3229" x2="269.428" y2="563.625" gradientUnits="userSpaceOnUse">
<stop stop-color="#E64210"/>
<stop offset="1" stop-color="#F09736"/>
</linearGradient>
</defs>
</svg>
