<svg preserveAspectRatio="none" width="100%" height="100%" overflow="visible" style="display: block;" viewBox="0 0 709.914 599.295" fill="none" xmlns="http://www.w3.org/2000/svg">
<g id="Group 41">
<path id="Vector 123" opacity="0" d="M359.952 58.3238C330.552 43.2037 288.842 75.2238 277.209 86.2517C246.129 103.728 288.507 143.295 273.102 177.909C257.697 212.523 199.445 147.069 147.32 139.681C95.196 132.293 84.875 231.338 120.29 255.122C155.704 278.905 223.836 243.092 177.16 360.112C130.485 477.133 179.078 474.442 266.571 540.266C354.064 606.091 452.823 527.261 441.673 470.959C430.522 414.657 534.654 405.59 625.962 378.276C717.269 350.962 652.446 229.07 617.796 185.888C583.522 143.175 527.658 222.979 443.595 244.239C376.345 261.248 372.821 193.069 379.465 156.853C381.512 134.891 389.351 73.4439 359.952 58.3238Z" stroke="url(#paint0_linear_0_36)"/>
<path id="Vector 123_2" opacity="0.0714286" d="M353.309 60.1983C324.202 44.715 282.16 76.0611 270.406 86.8948C239.167 103.888 280.875 143.926 265.029 178.223C249.183 212.52 192.007 146.452 140.13 138.362C88.2532 130.273 76.5774 228.881 111.562 253.085C146.546 277.29 214.989 242.528 166.809 358.553C118.628 474.578 167.124 472.57 253.455 539.413C339.787 606.256 439.374 529.031 429.041 472.742C418.707 416.452 522.678 408.858 614.114 382.893C705.55 356.928 642.609 234.497 608.658 190.963C575.075 147.901 518.251 226.692 434.124 246.723C366.822 262.747 364.26 194.722 371.392 158.706C373.74 136.838 382.416 75.6816 353.309 60.1983Z" stroke="url(#paint1_linear_0_36)" stroke-width="1.07143"/>
<path id="Vector 123_3" opacity="0.142857" d="M346.609 62.0602C317.799 46.219 275.436 76.888 263.563 87.5262C232.174 104.035 273.207 144.533 256.926 178.508C240.645 212.483 184.55 145.817 132.93 137.032C81.3103 128.246 68.29 226.398 102.839 251.016C137.389 275.634 206.127 241.927 156.46 356.937C106.793 471.947 155.183 470.618 240.341 538.461C325.5 606.304 425.889 530.691 416.37 474.426C406.851 418.161 510.64 412.033 602.185 387.414C693.73 362.796 632.673 239.856 599.424 195.98C566.535 152.58 508.768 230.348 424.595 249.151C357.257 264.193 355.652 196.335 363.267 160.525C365.914 138.755 375.419 77.9015 346.609 62.0602Z" stroke="url(#paint2_linear_0_36)" stroke-width="1.14286"/>
<path id="Vector 123_4" opacity="0.214286" d="M339.85 63.9088C311.341 47.7149 268.668 77.704 256.679 88.1455C225.147 104.169 265.501 145.115 248.791 178.763C232.081 212.41 177.073 145.165 125.719 135.689C74.365 126.213 60.0107 223.891 94.1203 248.915C128.23 273.939 197.248 241.287 146.113 355.264C94.9785 469.241 143.252 468.588 227.227 537.41C311.201 606.232 412.367 532.24 403.66 476.011C394.953 419.782 498.538 415.113 590.173 391.839C681.807 368.565 622.636 245.145 590.092 200.939C557.9 157.212 499.209 233.945 415.007 251.523C347.646 265.585 346.993 197.908 355.087 162.311C358.03 140.642 368.359 80.1028 339.85 63.9088Z" stroke="url(#paint3_linear_0_36)" stroke-width="1.21429"/>
<path id="Vector 123_5" opacity="0.285714" d="M333.035 65.7453C304.832 49.2039 261.859 78.5104 249.758 88.7542C218.09 104.292 257.76 145.676 240.627 178.99C223.494 212.305 169.578 144.497 118.499 134.336C67.4208 124.175 51.7431 221.361 85.4084 246.784C119.074 272.207 188.355 240.611 135.772 353.536C83.1889 466.461 131.337 466.48 214.117 536.263C296.897 606.045 398.813 533.679 390.916 477.498C383.018 421.316 486.38 418.1 578.083 396.169C669.787 374.238 612.503 250.366 580.667 205.84C549.176 161.797 489.577 237.485 405.365 253.841C337.995 266.926 338.288 199.441 346.856 164.064C350.094 142.501 361.239 82.2866 333.035 65.7453Z" stroke="url(#paint4_linear_0_36)" stroke-width="1.28571"/>
<path id="Vector 123_6" opacity="0.357143" d="M326.162 67.5702C298.268 50.6868 255.006 79.3083 242.796 89.3531C211 104.404 249.981 146.215 232.431 179.191C214.881 212.167 162.062 143.815 111.268 132.975C60.4739 122.135 43.4838 218.811 76.7003 244.625C109.917 270.439 179.445 239.9 125.433 351.755C71.4214 463.61 119.435 464.298 201.01 535.021C282.584 605.743 385.226 535.011 378.134 478.889C371.043 422.766 474.16 420.996 565.914 400.404C657.667 379.813 602.273 255.518 571.147 210.684C540.358 166.335 479.869 240.968 395.664 256.105C328.3 268.214 329.534 200.937 338.572 165.785C342.102 144.332 354.056 84.4536 326.162 67.5702Z" stroke="url(#paint5_linear_0_36)" stroke-width="1.35714"/>
<path id="Vector 123_7" opacity="0.428571" d="M319.232 69.3709C291.652 52.1509 248.112 80.0849 235.796 89.9298C203.879 104.494 242.167 146.72 224.207 179.353C206.246 211.986 154.528 143.106 104.027 131.593C53.5269 120.079 35.2355 216.228 67.9988 242.425C100.762 268.623 170.522 239.143 115.101 349.91C59.6794 460.677 107.549 462.03 187.908 533.672C268.268 605.315 371.609 536.222 365.32 480.17C359.032 424.119 461.885 423.786 553.669 404.532C645.453 385.277 591.948 260.588 561.534 215.456C531.451 170.814 470.09 244.381 385.909 258.302C318.565 269.439 320.734 202.382 330.237 167.462C334.056 146.123 346.812 86.5909 319.232 69.3709Z" stroke="url(#paint6_linear_0_36)" stroke-width="1.42857"/>
<path id="Vector 123_8" opacity="0.5" d="M312.247 71.1598C284.985 53.6087 241.177 80.8531 228.759 90.4971C196.727 104.573 234.32 147.204 215.954 179.488C197.589 211.773 146.976 142.383 96.7783 130.203C46.5803 118.023 26.9991 213.625 59.305 240.199C91.6109 266.773 161.586 238.351 104.775 348.013C47.9645 457.675 95.6807 459.689 174.815 532.231C253.95 604.774 357.965 537.326 352.476 481.357C346.987 425.387 449.556 426.485 541.351 408.564C633.146 390.643 581.53 265.588 551.831 220.17C522.455 175.245 460.24 247.737 376.102 260.446C308.791 270.614 311.89 203.79 321.853 169.107C325.959 147.886 339.51 88.711 312.247 71.1598Z" stroke="url(#paint7_linear_0_36)" stroke-width="1.5"/>
<path id="Vector 123_9" opacity="0.571429" d="M305.205 72.932C278.264 55.0552 234.2 81.6081 221.682 91.0501C189.544 104.639 226.437 147.662 207.672 179.593C188.908 211.525 139.406 141.641 89.5192 128.801C39.6322 115.96 18.7729 211 50.6173 237.943C82.4617 264.885 152.636 237.522 94.4561 346.061C36.2758 454.601 83.8296 457.272 161.73 530.694C239.63 604.116 344.293 538.319 339.6 482.443C334.907 426.567 437.172 429.088 528.959 412.497C620.745 395.906 571.019 270.513 542.037 224.82C513.37 179.623 450.319 251.03 366.24 262.532C298.977 271.732 302.999 205.155 313.418 170.715C317.808 149.616 332.146 90.8088 305.205 72.932Z" stroke="url(#paint8_linear_0_36)" stroke-width="1.57143"/>
<path id="Vector 123_10" opacity="0.642857" d="M298.108 74.6804C271.492 56.4835 227.182 82.3429 214.568 91.5822C182.332 104.683 218.52 148.088 199.363 179.661C180.207 211.234 131.819 140.876 82.2515 127.38C32.6843 113.885 10.5587 208.346 41.9376 235.649C73.3166 262.952 143.675 236.648 84.1453 344.048C24.6158 451.448 71.9982 454.772 148.655 529.054C225.312 603.336 330.597 539.194 326.696 483.423C322.795 427.652 424.737 431.586 516.496 416.322C608.255 401.058 560.417 275.355 532.154 229.399C504.198 183.941 440.33 254.254 356.328 264.551C289.126 272.789 294.065 206.47 304.934 172.28C309.607 151.306 324.724 92.8774 298.108 74.6804Z" stroke="url(#paint9_linear_0_36)" stroke-width="1.64286"/>
<path id="Vector 123_11" opacity="0.714286" d="M290.955 76.4154C264.669 57.9039 220.123 83.0683 207.416 92.1039C175.088 104.716 210.569 148.492 191.026 179.702C171.484 210.913 124.214 140.096 74.9746 125.953C25.7357 111.81 2.35582 205.675 33.2654 233.331C64.1751 260.986 134.701 235.741 73.8428 341.985C12.9844 448.23 60.1865 452.203 135.591 527.323C210.996 602.444 316.877 539.962 313.765 484.307C310.653 428.653 412.252 433.992 503.964 420.051C595.676 406.109 549.726 280.125 522.183 233.916C494.94 188.208 430.272 257.418 346.364 266.516C279.237 273.794 285.086 207.746 296.402 173.812C301.353 152.967 317.242 94.9269 290.955 76.4154Z" stroke="url(#paint10_linear_0_36)" stroke-width="1.71429"/>
<path id="Vector 123_12" opacity="0.785714" d="M283.75 78.1299C257.795 59.3095 213.026 83.7773 200.228 92.6085C167.816 104.732 202.586 148.868 182.664 179.711C162.742 210.554 116.593 139.297 67.6906 124.512C18.7883 109.727 -5.83341 202.98 24.6032 230.981C55.0398 258.982 125.718 234.794 63.5512 339.867C1.38469 444.939 48.3977 449.557 122.542 525.496C196.686 601.435 303.138 540.618 300.81 485.09C298.482 429.562 399.719 436.299 491.365 423.675C583.011 411.052 538.947 284.814 512.127 238.364C485.598 192.417 420.149 260.516 336.351 268.419C269.314 274.741 276.067 208.977 287.823 175.304C293.051 154.591 309.704 96.9503 283.75 78.1299Z" stroke="url(#paint11_linear_0_36)" stroke-width="1.78571"/>
<path id="Vector 123_13" opacity="0.857143" d="M276.487 79.8267C250.869 60.7031 205.886 84.4728 193.002 93.0989C160.513 104.735 194.569 149.218 174.274 179.689C153.979 210.16 108.954 138.48 60.3963 123.06C11.839 107.641 -14.0121 200.264 15.9478 228.603C45.9078 256.941 116.722 233.812 53.2681 337.696C-10.1858 441.581 36.6293 446.838 109.505 523.576C182.38 600.313 289.376 541.163 287.829 485.774C286.281 430.384 387.136 438.509 478.698 427.199C570.26 415.889 528.08 289.426 501.983 242.746C476.17 196.571 409.958 263.55 326.289 270.263C259.353 275.633 267.004 210.165 279.196 176.759C284.697 156.183 302.106 98.9503 276.487 79.8267Z" stroke="url(#paint12_linear_0_36)" stroke-width="1.85714"/>
</g>
<defs>
<linearGradient id="paint0_linear_0_36" x1="345.222" y1="52.8432" x2="442.941" y2="546.46" gradientUnits="userSpaceOnUse">
<stop stop-color="#E64210"/>
<stop offset="1" stop-color="#F09736"/>
</linearGradient>
<linearGradient id="paint1_linear_0_36" x1="338.697" y1="54.5296" x2="429.254" y2="548.036" gradientUnits="userSpaceOnUse">
<stop stop-color="#E64210"/>
<stop offset="1" stop-color="#F09736"/>
</linearGradient>
<linearGradient id="paint2_linear_0_36" x1="332.117" y1="56.2055" x2="415.534" y2="549.498" gradientUnits="userSpaceOnUse">
<stop stop-color="#E64210"/>
<stop offset="1" stop-color="#F09736"/>
</linearGradient>
<linearGradient id="paint3_linear_0_36" x1="325.48" y1="57.8704" x2="401.781" y2="550.847" gradientUnits="userSpaceOnUse">
<stop stop-color="#E64210"/>
<stop offset="1" stop-color="#F09736"/>
</linearGradient>
<linearGradient id="paint4_linear_0_36" x1="318.79" y1="59.5254" x2="388" y2="552.083" gradientUnits="userSpaceOnUse">
<stop stop-color="#E64210"/>
<stop offset="1" stop-color="#F09736"/>
</linearGradient>
<linearGradient id="paint5_linear_0_36" x1="312.043" y1="61.1711" x2="374.188" y2="553.208" gradientUnits="userSpaceOnUse">
<stop stop-color="#E64210"/>
<stop offset="1" stop-color="#F09736"/>
</linearGradient>
<linearGradient id="paint6_linear_0_36" x1="305.242" y1="62.7949" x2="360.351" y2="554.211" gradientUnits="userSpaceOnUse">
<stop stop-color="#E64210"/>
<stop offset="1" stop-color="#F09736"/>
</linearGradient>
<linearGradient id="paint7_linear_0_36" x1="298.388" y1="64.4093" x2="346.491" y2="555.104" gradientUnits="userSpaceOnUse">
<stop stop-color="#E64210"/>
<stop offset="1" stop-color="#F09736"/>
</linearGradient>
<linearGradient id="paint8_linear_0_36" x1="291.479" y1="66.0094" x2="332.606" y2="555.883" gradientUnits="userSpaceOnUse">
<stop stop-color="#E64210"/>
<stop offset="1" stop-color="#F09736"/>
</linearGradient>
<linearGradient id="paint9_linear_0_36" x1="284.517" y1="67.5881" x2="318.701" y2="556.542" gradientUnits="userSpaceOnUse">
<stop stop-color="#E64210"/>
<stop offset="1" stop-color="#F09736"/>
</linearGradient>
<linearGradient id="paint10_linear_0_36" x1="277.502" y1="69.1557" x2="304.776" y2="557.092" gradientUnits="userSpaceOnUse">
<stop stop-color="#E64210"/>
<stop offset="1" stop-color="#F09736"/>
</linearGradient>
<linearGradient id="paint11_linear_0_36" x1="270.435" y1="70.7053" x2="290.835" y2="557.526" gradientUnits="userSpaceOnUse">
<stop stop-color="#E64210"/>
<stop offset="1" stop-color="#F09736"/>
</linearGradient>
<linearGradient id="paint12_linear_0_36" x1="263.314" y1="72.2397" x2="276.876" y2="557.849" gradientUnits="userSpaceOnUse">
<stop stop-color="#E64210"/>
<stop offset="1" stop-color="#F09736"/>
</linearGradient>
</defs>
</svg>
